<svg fill="none" height="266" viewBox="0 0 266 266" width="266" xmlns="http://www.w3.org/2000/svg" xmlns:xlink="http://www.w3.org/1999/xlink"><linearGradient id="a" gradientUnits="userSpaceOnUse" x1="64.7787" x2="189.626" y1="259.259" y2="4.96086"><stop offset="0" stop-color="#13926e" stop-opacity=".15"/><stop offset="1" stop-color="#ef4921" stop-opacity=".05"/></linearGradient><linearGradient id="b" gradientUnits="userSpaceOnUse" x1="132.131" x2="133.054" y1="265.099" y2="118.244"><stop offset="0" stop-color="#101738" stop-opacity=".05"/><stop offset="1" stop-color="#101738" stop-opacity=".35"/></linearGradient><linearGradient id="c" gradientUnits="userSpaceOnUse" x1="184.332" x2="149.994" y1="36.5287" y2="29.1969"><stop offset="0" stop-color="#fff" stop-opacity=".45"/><stop offset="1" stop-color="#fff" stop-opacity=".45"/></linearGradient><mask id="d" height="266" maskUnits="userSpaceOnUse" width="257" x="4" y="0"><path d="m191.334 255.527c60.709-25.329 79.343-85.709 63.09-143.775-12.097-43.2165-53.256-106.34347-113.372-110.58643-52.9527-3.73739-97.5618 40.29433-91.1055 91.88823 3.9925 31.9042-36.7317 36.2772-43.51884 71.6582-18.25516 95.165 124.19834 116.144 184.90634 90.815z" fill="#ebedf0"/></mask><mask id="e" height="94" maskUnits="userSpaceOnUse" width="73" x="125" y="112"><path d="m193.417 129.918c-1-1.333-32.084-13.75-47.084-17.917l-15.416 30.834 33.75-2.083-12.33 14.583-1.409 1.667-.845 1.666-24.166 27.917 21.083 17.915 14.333.835-10-7.083-5.416-12.917c6.138-4.866 15.764-13.092 24.166-20 .677-.556 1.665-.279 2.336-.833.676-.558 1.348-1.114 2.015-1.667 11.119-9.218 20.883-17.671 22.316-20 3.333-5.417-2.083-11.25-3.333-12.917z" fill="#12785f"/></mask><mask id="f" height="141" maskUnits="userSpaceOnUse" width="120" x="28" y="98"><path d="m108.417 110.751c1.25-1.666 6.25-8.75 10-12.083l29.167 13.75c-3.473 8.472-10.75 26.417-12.084 28.75-.946 1.657-13.993 21.547-23.716 34.584-3.971 5.323-7.388 9.504-9.2 10.833-2.329 1.708-10.8423 5.499-20.8338 9.583-.3108.127-.4924 1.28-1.25 1.25-.3465-.013-1.111-.362-1.25-.306-16.3264 6.618-35.0001 13.64-35.0001 13.64l-5.4167 7.083v20.833l-10.8334-9.583v-30.417l13.3334.417 23.5417-14.583c6.9262-5.701 15.9233-9.789 23.5418-14.584 5-13.611 17.9171-40.417 17.9171-45.417 0-3.333.833-12.083 2.083-13.75z" fill="#12785f"/></mask><path d="m191.334 255.527c60.709-25.329 79.343-85.709 63.09-143.775-12.097-43.2165-53.256-106.34347-113.372-110.58643-52.9527-3.73739-97.5618 40.29433-91.1055 91.88823 3.9925 31.9042-36.7317 36.2772-43.51884 71.6582-18.25516 95.165 124.19834 116.144 184.90634 90.815z" fill="url(#a)"/><g mask="url(#d)"><path d="m132.131 284.271c-102.8325 0-186.1945-44.071-186.1945-98.435s83.362-98.4351 186.1945-98.4351c102.832 0 186.195 44.0711 186.195 98.4351s-83.363 98.435-186.195 98.435z" fill="url(#b)"/><path d="m229.498 136c-5.551 60.565-56.485 108-118.498 108-50.5651 0-93.7642-31.538-111-76.016v40.695c25.3719 33.603 65.6497 55.321 111 55.321 73.065 0 132.964-56.375 138.571-128z" fill="#9a9da7"/><path d="m239.186 111.209 23.383 25.5h-46.766z" fill="#9a9da7"/><g fill="#fff"><circle cx="61.25" cy="243.25" r=".25"/><circle cx="77.25" cy="240.25" r=".25"/><circle cx="77.25" cy="256.25" r=".25"/><circle cx="105.25" cy="252.25" r=".25"/><circle cx="133.25" cy="257.25" r=".25"/><circle cx="150.25" cy="241.25" r=".25"/><circle cx="182.25" cy="241.25" r=".25"/><circle cx="190.25" cy="221.25" r=".25"/><circle cx="206.25" cy="213.25" r=".25"/><circle cx="214.25" cy="190.25" r=".25"/><circle cx="231.25" cy="170.25" r=".25"/><circle cx="239.25" cy="138.25" r=".25"/><circle cx="239.25" cy="118.25" r=".25"/></g></g><path d="m167.242 49.138c-3.713 4.5306-9.507 11.6013-9.507 11.6013l-9.116-12.6684 6.227-5.9821c.666-4.7391.516-10.0458 2.04-14.5241 1.805-5.3062 12.818-5.0943 15.664-1.043.837 1.1907 1.218 2.7857 1.031 4.3135-.432 5.7066-.408 11.6824-1.755 17.2357 0 0-3.258 1.1466-4.584 1.0671z" fill="#ffd2bc"/><path d="m173.252 36.2722-6.753.7202-.721 2.164-2.164.7214" stroke="#101738" stroke-miterlimit="10" stroke-width=".274516"/><path d="m158.912 59.698s4.354-5.6623 8.329-10.56l-2.883-1.067 1.31 1.5418z" fill="#101738"/><path d="m174.295 25.3911s-5.113-2.0457-8.557-2.189c-2.998-.1249-7.01.5797-7.567 1.0221-.557.4423-.645 2.3578-.645 2.3578-4.649-.0001-4.036 3.5671-4.036 5.5077 0 4.5384.525 10.8265.525 10.8265l6.127 4.2499 1.053-4.2499s-2.306-.0928-2.441-1.7526c-.184-2.2721.836-3.5639 2.678-3.1815 1.255.2604 1.461 2.7948 1.461 2.7948s.926-.7307 1.291-1.2893c.533-.8156.059-4.7677-.219-6.7409-.092-.6573.255-1.28.854-1.4833 1.575-.5349 4.791-1.5653 8.378-2.3628 1.127-.2506 1.098-3.5095 1.098-3.5095z" fill="#101738"/><path d="m157.526 26.582c-4.649-.0001-4.036 3.5671-4.036 5.5077 0 4.5384.525 10.8265.525 10.8265l6.127 4.2499 1.053-4.2499s-2.306-.0928-2.441-1.7526c-.184-2.2721.836-3.5639 2.678-3.1815 1.255.2604 1.461 2.7948 1.461 2.7948s.926-.7307 1.291-1.2893c.533-.8156.059-4.7677-.219-6.7409-.092-.6573.255-1.28.854-1.4833 1.575-.5349 4.791-1.5653 8.378-2.3628 1.127-.2506 1.098-3.5095 1.098-3.5095s-5.113-2.0457-8.557-2.189c-2.998-.1249-7.01.5797-7.567 1.0221-.557.4423-.645 2.3578-.645 2.3578zm0 0c.375.3553 1.226 1.0947 1.628 1.2096" stroke="#101738" stroke-width=".137258"/><path d="m160.381 43.2884c1.464.3924 2.9-.4932 3.206-1.978.307-1.4848-.632-3.0066-2.097-3.399-1.464-.3924-2.9.4932-3.206 1.978-.307 1.4848.632 3.0066 2.097 3.399z" fill="#ffd2bc"/><path d="m160.556 39.8401-.013 1.2635.771.2555" stroke="#101738" stroke-linecap="round" stroke-linejoin="round" stroke-width=".274516"/><path d="m165.114 51.793c-1.561-.5011-9.075-5.7638-11.313-8.8044l-9.033 6.3279c3.757 3.7568 13.619 11.7402 16.347 13.187 0 0 4.359-10.5948 3.999-10.7105z" fill="#12785f"/><circle cx="163.341" cy="35.8673" fill="url(#c)" r="18.7844" transform="matrix(.46254571 -.88659543 .88659543 .46254571 55.988537 164.094419)"/><path d="m193.417 129.918c-1-1.333-32.084-13.75-47.084-17.917l-15.416 30.834 33.75-2.083-12.33 14.583-1.409 1.667-.845 1.666-24.166 27.917 21.083 17.915 14.333.835-10-7.083-5.416-12.917c6.138-4.866 15.764-13.092 24.166-20 .677-.556 1.665-.279 2.336-.833.676-.558 1.348-1.114 2.015-1.667 11.119-9.218 20.883-17.671 22.316-20 3.333-5.417-2.083-11.25-3.333-12.917z" fill="#12785f"/><g mask="url(#e)"><circle cx="196.5" cy="142.5" fill="#101738" r="7.5"/></g><path d="m193.417 129.918c1.25 1.667 6.666 7.5 3.333 12.917-1.433 2.329-11.197 10.782-22.316 20-.667.553-1.339 1.109-2.015 1.667-.671.554-1.659.277-2.336.833-8.402 6.908-18.028 15.134-24.166 20l5.416 12.917 10 7.083-14.166-.417-21.25-18.333 24.166-27.917.845-1.666 1.409-1.667 12.33-14.583 9.767-1.25" stroke="#101738" stroke-width=".250001"/><path d="m151.5 198-5.167-12.248c6.881-5.456 13.872-12.063 23.167-19.752l-19.5-7.5-24.5 28 21.5 18.5 15 .5z" fill="#101738"/><path d="m147 205 15 .5-1.4-1-13.1-.5-21.125-18.5-.875 1z" fill="#12785f"/><path d="m108.417 110.751c1.25-1.666 6.25-8.75 10-12.083l29.167 13.75c-3.473 8.472-10.75 26.417-12.084 28.75-.946 1.657-13.993 21.547-23.716 34.584-3.971 5.323-7.388 9.504-9.2 10.833-2.329 1.708-10.8423 5.499-20.8338 9.583-.3108.127-.4924 1.28-1.25 1.25-.3465-.013-1.111-.362-1.25-.306-16.3264 6.618-35.0001 13.64-35.0001 13.64l-5.4167 7.083v20.833l-10.8334-9.583v-30.417l13.3334.417 23.5417-14.583c6.9262-5.701 15.9233-9.789 23.5418-14.584 5-13.611 17.9171-40.417 17.9171-45.417 0-3.333.833-12.083 2.083-13.75z" fill="#12785f"/><g mask="url(#f)"><circle cx="106.5" cy="180.5" fill="#101738" r="7.5"/></g><path d="m147.584 112.418c-3.473 8.472-10.75 26.417-12.084 28.75-1.333 2.333-26.666 40.834-32.916 45.417-2.329 1.708-10.8423 5.499-20.8338 9.583-.3108.127-.4924 1.28-1.25 1.25-.3465-.013-1.111-.362-1.25-.306-16.3264 6.618-35.0001 13.64-35.0001 13.64l-5.4167 7.083v20.833l-10.8334-9.583v-30.417l13.3334.417 23.5417-14.583c6.9262-5.701 15.9233-9.789 23.5418-14.584l4.5833 1.25" stroke="#101738" stroke-width=".250001"/><path d="m28 198.668 13.3334.417 23.5417-14.584 14.3751 12.611c-16.3264 6.618-35.0001 13.64-35.0001 13.64l-5.4167 7.083v20.833l-10.8334-9.583z" fill="#101738"/><path d="m28 229.085v-30.417l1.6667.053v31.839z" fill="#12785f"/><path d="m118.417 98.668 29.167 13.75-31.251-11.667c.572-.601 1.549-1.6075 2.084-2.083z" fill="#101738"/><path d="m79.2495 87.8348c0-.8346 6.25-8.3333 6.25-8.3333l9.1667 1.25v1.25l1.25 5.8333v9.5834c0 2.0833-3.75 2.0833-3.75 0v-5.8334l-5.4167 3.7501.8334 6.2501c-.0832.915-1.4167 1.082-2.0834.415-.6666-.666-2.9998-4.5818-4.4998-6.9998 0 0-1.7502-5.9154-1.7502-7.1654z" fill="#fff" stroke="#101738" stroke-linejoin="round" stroke-width=".250001"/><path d="m94.6662 80.7515v1.25l.625 2.9166-9.7917-5.4166z" fill="#101738"/><path d="m108.833 39.0846 37.083 8.75-15 12.5001-19.583-4.5834-16.2503 26.6668-10.4167-2.9167c3.4722-9.7223 12.3334-30.7501 15.0001-35.4168 2.6669-4.6667 5.8329-5.4167 9.1669-5z" fill="#12785f"/><path d="m84.666 79.5015 10.4167 2.9168 16.2503-26.6668m0 0 19.583 4.5833m-19.583-4.5833-5-1.25" stroke="#101738" stroke-width=".250001"/><path d="m97.6223 78.2516-11.4065-2.9167c.2072-.5409.4221-1.0972.6439-1.6667l11.7783 2.9167z" fill="#12785f"/><path d="m187.583 66.5846v-7.9167s0-2.1678 1.417-2.5 1.917 1.8322 1.917 1.8322v3.1678s2.083-2.1678 2.083-3.1678c0-2.6655.417-9.3322.417-9.3322s0-1.6667 1.25-1.6667c1.667 0 1.667 1.6667 1.667 1.6667v7.5h1.25v-6.25c0-1.5318 2.916-2.0833 2.916.8333v3.75s2.5 3.3334 2.5 4.1667c0 .8334-.137 2.0644-.416 4.5833v.0001c-.417 3.75-2.917 12.0833-2.917 12.0833l-9.167-3.3333c-.833-1.25-2.917-4.5833-2.917-5.4167z" fill="#fff"/><path d="m190.917 61.1679s2.083-2.1678 2.083-3.1678c0-2.6655.417-9.3322.417-9.3322s0-1.6667 1.25-1.6667c1.667 0 1.667 1.6667 1.667 1.6667v7.5h1.25s0-5.4167 0-6.25c0-1.5318 2.916-2.0833 2.916.8333v3.75s2.5 3.3334 2.5 4.1667c0 .8334-.137 2.0644-.416 4.5834-.417 3.75-2.917 12.0833-2.917 12.0833l-9.167-3.3333c-.833-1.25-2.917-4.5833-2.917-5.4167 0-1 0-5 0-7.9167 0 0 0-2.1678 1.417-2.5s1.917 1.8322 1.917 1.8322zm0 0v2.0834" stroke="#101738" stroke-linejoin="round" stroke-width=".250001"/><path d="m199.666 75.3346-9.167-3.3333c-.263-.3955-.709-1.3547-1.118-2.0221l11.271 2.3481c-.939 2.348-.986 3.0073-.986 3.0073z" fill="#101738"/><path d="m178.417 109.085-13.75-18.7504 10.833-23.3334c2.698 6.7447 6.667 21.2501 6.667 21.2501l7.916-16.6667 10.417 3.75c-2.639 9.1667-9.5 30.6664-12.5 33.3334s-8.333 1.528-9.583.417z" fill="#12785f"/><path d="m164.667 90.3346 13.75 18.7504c1.25 1.111 6.583 2.25 9.583-.417m-5.833-20.4168 1.666 5.4167" stroke="#101738" stroke-width=".250001"/><path d="m118 99.0847 12.917-38.7501 11.25-13.3334 3.75.8334s9.04 4.4066 15 8.3333c5.676 3.7396 13.774 8.8095 14.583 10.8334l-10.833 23.3334-17.084 22.0833z" fill="#12785f"/></svg>